<svg xmlns="http://www.w3.org/2000/svg" width="24" height="24" viewBox="0 0 24 24" id="maybe-creation-medium" data-supported-dps="24x24">
  <g>
    <path fill="none" d="M0 0h24v24H0z"/>
    <circle cx="12" cy="12" r="9" fill="#deb8dc" stroke="#523951" stroke-miterlimit="10"/>
    <path d="M10.49 13.2H12" fill="none" stroke="#523951" stroke-linecap="round" stroke-linejoin="round"/>
    <circle cx="8.5" cy="9.6" r="1" fill="#523951"/>
    <circle cx="14.92" cy="10.5" r="1" fill="#523951"/>
    <path d="M14.23 7.61a2.18 2.18 0 011.59 0 2.17 2.17 0 011.27.93M7 6.33a2.22 2.22 0 011.44-.64A2.2 2.2 0 0110 6" fill="none" stroke="#523951" stroke-linecap="round" stroke-linejoin="round"/>
    <path d="M7.14 16.56l6-1a1 1 0 01.75.18 1 1 0 01-.42 1.79l-2.47.41a.83.83 0 01.93.7.85.85 0 01-.64 1 .82.82 0 01.44.61.87.87 0 01-.55.95.86.86 0 01.19.58.92.92 0 01-.79.81l-.29.06c-.84.17-1.42.28-2.3.38a14.51 14.51 0 01-2.63-.21 1.73 1.73 0 01-1.28-1.13c-.57-1.19-.89-3.44-.18-4.08a2.26 2.26 0 00.92-1.26c.34-.76.68-1.66 1-2.42s.37-1.09.87-1.28a1 1 0 011.23.58 4.31 4.31 0 01-.07 1.6c-.13 1.06-.14 1.29 0 1.64" fill="#deb8dc" fill-rule="evenodd"/>
    <path d="M13.14 15.56a1 1 0 01.75.18 1 1 0 01-.42 1.79l-2.47.41a.83.83 0 01.93.7.85.85 0 01-.64 1 .82.82 0 01.44.61.87.87 0 01-.55.95.86.86 0 01.19.58.92.92 0 01-.79.81l-.29.06c-.84.17-1.42.28-2.3.38a14.51 14.51 0 01-2.63-.21 1.73 1.73 0 01-1.28-1.13c-.57-1.19-.89-3.44-.18-4.08a2.26 2.26 0 00.92-1.26c.34-.76.68-1.66 1-2.42s.37-1.09.87-1.28a1 1 0 011.23.58 4.31 4.31 0 01-.07 1.6c-.13 1.06-.14 1.29 0 1.64z" fill="none" stroke="#523951" stroke-linecap="round" stroke-linejoin="round"/>
  </g>
</svg>
